Coordinates
version=1
nRows=16
nColumns=28
inDegrees=yes

Units are S.I. units (second, meters, Newtons, ...)
Angles are in degrees.

endheader
time	pelvis_tilt	pelvis_list	pelvis_rotation	pelvis_tx	pelvis_ty	pelvis_tz	hip_flexion_r	hip_adduction_r	hip_rotation_r	knee_angle_r	ankle_angle_r	subtalar_angle_r	mtp_angle_r	hip_flexion_l	hip_adduction_l	hip_rotation_l	knee_angle_l	socket_flexion	socket_adduction	socket_rotation	socket_tx	socket_ty	socket_tz	foot_flex	lumbar_extension	lumbar_bending	lumbar_rotation
      0.64583333	      1.31484866	     -4.30744127	      2.72430393	      0.05348188	      0.98458849	      0.26122316	     25.57535080	      4.29115018	    -12.01604751	    -11.04574104	     10.29459666	     -8.69123801	     10.71421367	    -22.80729595	     -5.41544546	     14.64474645	     -7.48601913	      0.00000000	      0.00000000	      0.00000000	      0.00000000	     -0.01168573	      0.00000000	      7.80426268	    -14.44929948	      4.68860332	      1.80804375
      0.65000000	      1.27370818	     -4.21227685	      2.65548462	      0.05349023	      0.98451949	      0.26132986	     25.69138479	      4.19344645	    -12.07704414	    -11.19638745	     10.25186184	     -8.66826742	     10.70513501	    -22.77243570	     -5.28735158	     14.57978538	     -7.49183164	      0.00000000	      0.00000000	      0.00000000	      0.00000000	     -0.01155390	      0.00000000	      7.85820130	    -14.40618757	      4.55421933	      1.80060637
      0.65416667	      1.28503046	     -4.29692425	      2.73466403	      0.05949027	      0.98381428	      0.26148992	     25.76089697	      4.28723245	    -11.85114708	    -11.79985793	      9.90273503	     -8.67155090	     10.75202623	    -22.94168544	     -5.37374109	     14.61815449	     -7.84864108	      0.00000000	      0.00000000	      0.00000000	      0.00000000	     -0.01145875	      0.00000000	      7.70979170	    -14.38785842	      4.78280057	      1.82792505
      0.65833333	      1.31226105	     -4.39171774	      2.62814992	      0.06557816	      0.98306871	      0.26197904	     25.94288561	      4.42127084	    -11.78061632	    -12.64772840	      9.21078712	     -8.81196201	     10.83728026	    -23.19687485	     -5.41250825	     14.44568617	     -8.14250569	      0.00000000	      0.00000000	      0.00000000	      0.00000000	     -0.01135854	      0.00000000	      7.58687631	    -14.38347055	      4.96282230	      1.85063463
      0.66250000	      1.32889919	     -4.49410904	      2.42945104	      0.07173282	      0.98240057	      0.26257442	     26.11812555	      4.60391203	    -11.63146285	    -13.46565528	      8.33043856	     -9.10815275	     11.12654473	    -23.43654664	     -5.40972964	     14.14160964	     -8.48188914	      0.00000000	      0.00000000	      0.00000000	      0.00000000	     -0.01110852	      0.00000000	      7.43540523	    -14.37580059	      5.15052503	      1.98484381
      0.66666667	      1.35266694	     -4.60104090	      2.43728432	      0.07768717	      0.98188087	      0.26287680	     26.18808661	      4.74173457	    -11.37168899	    -14.11541627	      7.94201723	     -9.17273185	     11.22693443	    -23.57006939	     -5.48333496	     14.14390690	     -8.93835429	      0.00000000	      0.00000000	      0.00000000	      0.00000000	     -0.01098478	      0.00000000	      7.26542928	    -14.40699705	      5.38016925	      2.04842747
      0.67083333	      1.39504161	     -4.71621595	      2.26546092	      0.08383853	      0.98133923	      0.26345483	     26.34835961	      4.92443193	    -11.22561621	    -14.99806743	      7.21777128	     -9.38934636	     11.39152730	    -23.80167112	     -5.50000352	     13.87506447	     -9.31362170	      0.00000000	      0.00000000	      0.00000000	      0.00000000	     -0.01074122	      0.00000000	      7.07397539	    -14.42621970	      5.58470258	      2.14343193
      0.67500000	      1.29994209	     -4.87229262	      1.59392949	      0.08984076	      0.98061813	      0.26501382	     26.39322877	      5.57110449	     -9.57958144	    -15.22773434	      4.88381713	    -12.29674499	     15.23481896	    -23.96413791	     -5.38090015	     13.09277558	     -9.69629327	      0.00000000	      0.00000000	      0.00000000	      0.00000000	     -0.01050969	      0.00000000	      6.86379112	    -14.33901216	      5.63969215	      3.21867709
      0.67916667	      1.35385230	     -5.00207115	      1.50508216	      0.09602549	      0.98027018	      0.26541246	     26.50140689	      5.71171040	     -9.59004544	    -16.06361496	      4.35921359	    -12.19566301	     15.34372866	    -24.12803076	     -5.42737771	     12.93033370	    -10.19138777	      0.00000000	      0.00000000	      0.00000000	      0.00000000	     -0.01028830	      0.00000000	      6.61412939	    -14.35580339	      5.89516913	      3.13763975
      0.68333333	      1.40905096	     -5.15207894	      1.37758877	      0.10225149	      0.97998673	      0.26586634	     26.58645935	      5.89069446	     -9.54928213	    -16.87812651	      3.89129367	    -12.14150807	     15.48644720	    -24.27748263	     -5.47439310	     12.70735525	    -10.72780346	      0.00000000	      0.00000000	      0.00000000	      0.00000000	     -0.01002463	      0.00000000	      6.35091843	    -14.37722550	      6.15857906	      3.17114925
      0.68750000	      1.46816318	     -5.33008307	      1.18872393	      0.10855067	      0.97977444	      0.26641003	     26.65029283	      6.12281799	     -9.46344883	    -17.66906521	      3.40763509	    -12.12270656	     15.73050909	    -24.43257247	     -5.52185884	     12.37347961	    -11.28620452	      0.00000000	      0.00000000	      0.00000000	      0.00000000	     -0.00974507	      0.00000000	      6.05908472	    -14.39723423	      6.42924759	      3.32455796
      0.69166667	      1.53962230	     -5.50185888	      0.99469225	      0.11484616	      0.97963827	      0.26698184	     26.68161954	      6.36100774	     -9.32388921	    -18.44219265	      2.98989064	    -12.14698612	     15.96995986	    -24.57400462	     -5.55954278	     12.05874966	    -11.88858612	      0.00000000	      0.00000000	      0.00000000	      0.00000000	     -0.00939951	      0.00000000	      5.74788843	    -14.43388615	      6.69533137	      3.50545809
      0.69583333	      1.66704360	     -5.72677923	      0.67408044	      0.12116700	      0.97960205	      0.26773370	     26.54913254	      6.74955660	     -8.87728779	    -18.96362819	      1.66448975	    -13.11648031	     19.57273804	    -24.79136963	     -5.59483640	     11.55667352	    -12.51269920	      0.00000000	      0.00000000	      0.00000000	      0.00000000	     -0.00901497	      0.00000000	      5.47951849	    -14.53566396	      6.96303200	      4.07180382
      0.70000000	      1.73134404	     -5.84570901	      0.66263945	      0.12745975	      0.97974994	      0.26802802	     26.46822030	      6.87924045	     -8.74193787	    -19.54414273	      1.51206065	    -13.06319024	     19.57518348	    -24.78687397	     -5.64011525	     11.47070456	    -13.27468781	      0.00000000	      0.00000000	      0.00000000	      0.00000000	     -0.00856920	      0.00000000	      5.10500372	    -14.54148552	      7.18942558	      4.09069959
      0.70416667	      1.83789848	     -6.02703619	      0.34465830	      0.13387661	      0.97974871	      0.26873514	     26.50741097	      7.13123673	     -8.73466247	    -20.46688114	      1.18489643	    -12.98286372	     19.59589274	    -24.94395815	     -5.62821214	     10.97723036	    -13.94251314	      0.00000000	      0.00000000	      0.00000000	      0.00000000	     -0.00817404	      0.00000000	      4.71222628	    -14.61712119	      7.45146303	      4.17361821
      0.70833333	      1.91710071	     -6.15334827	      0.30651725	      0.14024930	      0.98002756	      0.26904759	     26.37483463	      7.27852677	     -8.58388256	    -21.00877397	      1.08474936	    -12.93121411	     19.61772656	    -24.90667727	     -5.66396057	     10.83374296	    -14.79744803	      0.00000000	      0.00000000	      0.00000000	      0.00000000	     -0.00759058	      0.00000000	      4.35298033	    -14.62097796	      7.68472917	      4.24264410
